<svg width="101" height="18" viewBox="0 0 101 18" fill="none" xmlns="http://www.w3.org/2000/svg">
<path d="M0.66 17.5H15.42V12.46H6.7V0.7H0.66V17.5ZM16.785 17.5H22.825V11.8H31.825V7.46H22.825V5.74H32.205V0.7H16.785V17.5ZM47.4259 0.7H38.7459V17.5H47.4259C54.3659 17.5 56.7459 13.94 56.7459 9.1C56.7459 4.24 54.3659 0.7 47.4259 0.7ZM47.4259 12.44H44.8059L44.8259 5.76H47.4259C49.2059 5.76 50.6659 6.58 50.6659 9.1C50.6659 11.6 49.2059 12.44 47.4259 12.44ZM57.8475 17.5H63.8875V0.7H57.8475V17.5ZM65.2069 17.5H71.1069V9.16H71.6469L76.6469 17.5H83.4269V0.7H77.5269V9.04H76.9669L72.1269 0.7H65.2069V17.5ZM84.7303 17.5H100.19V12.66H90.7703V11.04H99.8303V7.16H90.7703V5.52H100.19V0.7H84.7303V17.5Z" fill="#3D00B7"/>
</svg>
